<svg width="81" height="29" viewBox="0 0 81 29" fill="none" xmlns="http://www.w3.org/2000/svg">
<path d="M55.75 11.5H25.75" stroke="black" stroke-width="2.5" stroke-linecap="round"/>
<path d="M48.5 2.5H32.75" stroke="black" stroke-width="5" stroke-linecap="round"/>
<path d="M40.75 4.5V9.5" stroke="black" stroke-width="3.5" stroke-linecap="round"/>
<path d="M78.75 21.25H63" stroke="black" stroke-width="3.5" stroke-linecap="round"/>
<path d="M57.75 26.5C60.6495 26.5 63 24.1495 63 21.25C63 18.3505 60.6495 16 57.75 16C54.8505 16 52.5 18.3505 52.5 21.25C52.5 24.1495 54.8505 26.5 57.75 26.5Z" stroke="black" stroke-width="3.5" stroke-linecap="round" stroke-linejoin="round"/>
<path d="M1.75 21.25H17.5" stroke="black" stroke-width="3.5" stroke-linecap="round"/>
<path d="M22.75 26.5C19.8505 26.5 17.5 24.1495 17.5 21.25C17.5 18.3505 19.8505 16 22.75 16C25.6495 16 28 18.3505 28 21.25C28 24.1495 25.6495 26.5 22.75 26.5Z" stroke="black" stroke-width="3.5" stroke-linecap="round" stroke-linejoin="round"/>
</svg>
