<svg width="81" height="42" viewBox="0 0 81 42" fill="none" xmlns="http://www.w3.org/2000/svg">
<path d="M78.75 7H63" stroke="black" stroke-width="3.5" stroke-linecap="round"/>
<path d="M57.75 12.25C60.6495 12.25 63 9.8995 63 7C63 4.10051 60.6495 1.75 57.75 1.75C54.8505 1.75 52.5 4.10051 52.5 7C52.5 9.8995 54.8505 12.25 57.75 12.25Z" stroke="black" stroke-width="3.5" stroke-linecap="round" stroke-linejoin="round"/>
<path d="M78.75 35H63" stroke="black" stroke-width="3.5" stroke-linecap="round"/>
<path d="M57.75 40.25C60.6495 40.25 63 37.8995 63 35C63 32.1005 60.6495 29.75 57.75 29.75C54.8505 29.75 52.5 32.1005 52.5 35C52.5 37.8995 54.8505 40.25 57.75 40.25Z" stroke="black" stroke-width="3.5" stroke-linecap="round" stroke-linejoin="round"/>
<path d="M1.75 21H17.5" stroke="black" stroke-width="3.5" stroke-linecap="round"/>
<path d="M22.75 26.25C19.8505 26.25 17.5 23.8995 17.5 21C17.5 18.1005 19.8505 15.75 22.75 15.75C25.6495 15.75 28 18.1005 28 21C28 23.8995 25.6495 26.25 22.75 26.25Z" stroke="black" stroke-width="3.5" stroke-linecap="round" stroke-linejoin="round"/>
<path d="M29.75 21L57.75 15.75" stroke="black" stroke-width="3.5" stroke-linecap="round" class="bras"/>
</svg>
