<svg width="81" height="46" viewBox="0 0 81 46" fill="none" xmlns="http://www.w3.org/2000/svg">
<path d="M78.75 10.5003H63" stroke="black" stroke-width="3.5" stroke-linecap="round"/>
<path d="M57.75 15.7503C60.6495 15.7503 63 13.3998 63 10.5003C63 7.60081 60.6495 5.25031 57.75 5.25031C54.8505 5.25031 52.5 7.60081 52.5 10.5003C52.5 13.3998 54.8505 15.7503 57.75 15.7503Z" stroke="black" stroke-width="3.5" stroke-linecap="round" stroke-linejoin="round"/>
<path d="M1.75 10.5003H17.5" stroke="black" stroke-width="3.5" stroke-linecap="round"/>
<path d="M22.75 15.7503C19.8505 15.7503 17.5 13.3998 17.5 10.5003C17.5 7.60081 19.8505 5.25031 22.75 5.25031C25.6495 5.25031 28 7.60081 28 10.5003C28 13.3998 25.6495 15.7503 22.75 15.7503Z" stroke="black" stroke-width="3.5" stroke-linecap="round" stroke-linejoin="round"/>
<path d="M29.75 7.00031L57.75 1.75031" stroke="black" stroke-width="3.5" stroke-linecap="round"/>
<path d="M29.75 7.00031L57.75 1.75031" stroke="black" stroke-width="3.5" stroke-linecap="round"/>
<path d="M78.75 38.7503H63" stroke="black" stroke-width="3.5" stroke-linecap="round"/>
<path d="M57.75 44.0003C60.6495 44.0003 63 41.6498 63 38.7503C63 35.8508 60.6495 33.5003 57.75 33.5003C54.8505 33.5003 52.5 35.8508 52.5 38.7503C52.5 41.6498 54.8505 44.0003 57.75 44.0003Z" stroke="black" stroke-width="3.5" stroke-linecap="round" stroke-linejoin="round"/>
<path d="M1.75 38.7503H17.5" stroke="black" stroke-width="3.5" stroke-linecap="round"/>
<path d="M22.75 44.0003C19.8505 44.0003 17.5 41.6498 17.5 38.7503C17.5 35.8508 19.8505 33.5003 22.75 33.5003C25.6495 33.5003 28 35.8508 28 38.7503C28 41.6498 25.6495 44.0003 22.75 44.0003Z" stroke="black" stroke-width="3.5" stroke-linecap="round" stroke-linejoin="round"/>
<path d="M29.75 35.2503L57.75 30.0003" stroke="black" stroke-width="3.5" stroke-linecap="round"/>
<path d="M29.75 35.2503L57.75 30.0003" stroke="black" stroke-width="3.5" stroke-linecap="round"/>
<path d="M41.75 5.50031V30.0003" stroke="black" stroke-width="3.5" stroke-linecap="round" stroke-dasharray="3.5 7"/>
</svg>
