<svg width="81" height="53" viewBox="0 0 81 53" fill="none" xmlns="http://www.w3.org/2000/svg">
<path d="M78.75 17.5004H63" stroke="black" stroke-width="3.5" stroke-linecap="round"/>
<path d="M57.75 22.7504C60.6495 22.7504 63 20.3999 63 17.5004C63 14.6009 60.6495 12.2504 57.75 12.2504C54.8505 12.2504 52.5 14.6009 52.5 17.5004C52.5 20.3999 54.8505 22.7504 57.75 22.7504Z" stroke="black" stroke-width="3.5" stroke-linecap="round" stroke-linejoin="round"/>
<path d="M1.75 17.5004H17.5" stroke="black" stroke-width="3.5" stroke-linecap="round"/>
<path d="M22.75 22.7504C19.8505 22.7504 17.5 20.3999 17.5 17.5004C17.5 14.6009 19.8505 12.2504 22.75 12.2504C25.6495 12.2504 28 14.6009 28 17.5004C28 20.3999 25.6495 22.7504 22.75 22.7504Z" stroke="black" stroke-width="3.5" stroke-linecap="round" stroke-linejoin="round"/>
<path d="M29.75 14.0004L54.25 1.7504" stroke="black" stroke-width="3.5" stroke-linecap="round"/>
<path d="M78.75 45.5004H63" stroke="black" stroke-width="3.5" stroke-linecap="round"/>
<path d="M57.75 50.7504C60.6495 50.7504 63 48.3999 63 45.5004C63 42.6009 60.6495 40.2504 57.75 40.2504C54.8505 40.2504 52.5 42.6009 52.5 45.5004C52.5 48.3999 54.8505 50.7504 57.75 50.7504Z" stroke="black" stroke-width="3.5" stroke-linecap="round" stroke-linejoin="round"/>
<path d="M1.75 45.5004H17.5" stroke="black" stroke-width="3.5" stroke-linecap="round"/>
<path d="M22.75 50.7504C19.8505 50.7504 17.5 48.3999 17.5 45.5004C17.5 42.6009 19.8505 40.2504 22.75 40.2504C25.6495 40.2504 28 42.6009 28 45.5004C28 48.3999 25.6495 50.7504 22.75 50.7504Z" stroke="black" stroke-width="3.5" stroke-linecap="round" stroke-linejoin="round"/>
<path d="M29.75 42.0004L54.25 29.7504" stroke="black" stroke-width="3.5" stroke-linecap="round"/>
<path d="M40.25 10.5004V35.0004" stroke="black" stroke-width="3.5" stroke-linecap="round" stroke-dasharray="3.5 7"/>
</svg>
